<?xml version="1.0" encoding="UTF-8" standalone="no"?>
<svg
   xmlns:dc="http://purl.org/dc/elements/1.1/"
   xmlns:cc="http://creativecommons.org/ns#"
   xmlns:rdf="http://www.w3.org/1999/02/22-rdf-syntax-ns#"
   xmlns:svg="http://www.w3.org/2000/svg"
   xmlns="http://www.w3.org/2000/svg"
   xmlns:sodipodi="http://sodipodi.sourceforge.net/DTD/sodipodi-0.dtd"
   xmlns:inkscape="http://www.inkscape.org/namespaces/inkscape"
   sodipodi:docname="Player.svg"
   inkscape:version="1.0 (4035a4fb49, 2020-05-01)"
   inkscape:export-ydpi="96"
   inkscape:export-xdpi="96"
   inkscape:export-filename="E:\7 - CICCC\Addictive Gameplay\Assets\Sprites\Shield.png"
   id="svg843"
   version="1.1"
   viewBox="0 0 105.83333 52.916668"
   height="200"
   width="400">
  <defs
     id="defs837" />
  <sodipodi:namedview
     inkscape:window-maximized="1"
     inkscape:window-y="-8"
     inkscape:window-x="-8"
     inkscape:window-height="1017"
     inkscape:window-width="1920"
     inkscape:pagecheckerboard="true"
     units="px"
     showgrid="false"
     inkscape:document-rotation="0"
     inkscape:current-layer="layer1"
     inkscape:document-units="mm"
     inkscape:cy="123.6376"
     inkscape:cx="188.26137"
     inkscape:zoom="1.979899"
     inkscape:pageshadow="2"
     inkscape:pageopacity="0.0"
     borderopacity="1.0"
     bordercolor="#666666"
     pagecolor="#ffffff"
     id="base" />
  <metadata
     id="metadata840">
    <rdf:RDF>
      <cc:Work
         rdf:about="">
        <dc:format>image/svg+xml</dc:format>
        <dc:type
           rdf:resource="http://purl.org/dc/dcmitype/StillImage" />
        <dc:title></dc:title>
      </cc:Work>
    </rdf:RDF>
  </metadata>
  <g
     id="layer1"
     inkscape:groupmode="layer"
     inkscape:label="Layer 1">
    <path
       d="M 52.916666,17.212845 A 52.916669,17.849364 0 0 0 0,35.062315 a 52.916669,17.849364 0 0 0 0,0.0024 v 17.85191 h 105.83333 v -17.85191 a 52.916669,17.849364 0 0 0 0,-0.0024 52.916669,17.849364 0 0 0 -52.916664,-17.84947 z"
       style="opacity:0.999;fill:#4d4d4d;stroke-width:4.21124"
       id="path1406" />
    <path
       transform="scale(0.26458333)"
       d="M 199.24805 71.0625 A 186.5565 87.663032 0 0 0 170.86328 72.136719 L 170.86328 88.535156 A 186.5565 87.663032 0 0 1 200 87.458984 A 186.5565 87.663032 0 0 1 229.13672 88.535156 L 229.13672 72.138672 A 186.5565 87.663032 0 0 0 200 71.0625 A 186.5565 87.663032 0 0 0 199.24805 71.0625 z M 162.60156 72.841797 A 186.5565 87.663032 0 0 0 104.33008 83.466797 L 104.33008 99.865234 A 186.5565 87.663032 0 0 1 162.60156 89.238281 L 162.60156 72.841797 z M 237.39844 72.841797 L 237.39844 89.240234 A 186.5565 87.663032 0 0 1 295.66992 99.865234 L 295.66992 83.466797 A 186.5565 87.663032 0 0 0 237.39844 72.841797 z "
       style="opacity:0.999;fill:#0000ff;stroke-width:6.68107"
       id="rect1420" />
    <path
       d="M 52.916666,-0.04348574 A 52.916669,29.800264 0 0 0 0,29.757105 a 52.916669,29.800264 0 0 0 0,0.0035 v 7.904608 A 52.916669,29.800264 0 0 1 52.916666,7.9077072 52.916669,29.800264 0 0 1 105.83333,37.708299 v -7.947743 a 52.916669,29.800264 0 0 0 0,-0.0035 52.916669,29.800264 0 0 0 -52.916664,-29.80059074 z"
       style="opacity:0.999;fill:#00ff00;stroke-width:5.44138"
       id="path1454" />
  </g>
</svg>
